<svg xmlns="http://www.w3.org/2000/svg" viewBox="0 0 30 30"><path d="M 21 5 L 21 8 L 18.675781 8 C 16.670448 8 14.796256 9.00408 13.683594 10.671875 L 12 13.197266 L 10.316406 10.671875 C 9.2045791 9.0047337 7.329552 8 5.3242188 8 L 3 8 A 1.0001 1.0001 0 1 0 3 10 L 5.3242188 10 C 6.6628853 10 7.910171 10.668391 8.6523438 11.78125 L 10.798828 15 L 8.6523438 18.21875 C 7.910171 19.331609 6.6628854 20 5.3242188 20 L 3 20 A 1.0001 1.0001 0 1 0 3 22 L 5.3242188 22 C 7.3295521 22 9.2045792 20.995266 10.316406 19.328125 L 12 16.802734 L 13.683594 19.328125 C 14.796256 20.99592 16.670448 22 18.675781 22 L 21 22 L 21 25 L 27 21 L 21 17 L 21 20 L 18.675781 20 C 17.337115 20 16.090994 19.332955 15.347656 18.21875 L 13.201172 15 L 15.347656 11.78125 C 16.090994 10.667045 17.337115 10 18.675781 10 L 21 10 L 21 13 L 27 9 L 21 5 z"></path></svg>